<svg xmlns="http://www.w3.org/2000/svg" xmlns:xlink="http://www.w3.org/1999/xlink" width="250" zoomAndPan="magnify" viewBox="0 0 187.5 74.999997" height="100" preserveAspectRatio="xMidYMid meet" version="1.0"><defs><filter x="0%" y="0%" width="100%" height="100%" id="ad4d9d905f"><feColorMatrix values="0 0 0 0 1 0 0 0 0 1 0 0 0 0 1 0 0 0 1 0" color-interpolation-filters="sRGB"/></filter><g/><clipPath id="99325f5e78"><path d="M 0 0.101562 L 187 0.101562 L 187 74.898438 L 0 74.898438 Z M 0 0.101562 " clip-rule="nonzero"/></clipPath><clipPath id="09d2b083f1"><path d="M 0 11 L 187 11 L 187 74.898438 L 0 74.898438 Z M 0 11 " clip-rule="nonzero"/></clipPath><mask id="05df58b800"><g filter="url(#ad4d9d905f)"><rect x="-18.75" width="225" fill="#000000" y="-7.5" height="89.999996" fill-opacity="0.34"/></g></mask><clipPath id="dee8523362"><path d="M 0 0.589844 L 187 0.589844 L 187 62 L 0 62 Z M 0 0.589844 " clip-rule="nonzero"/></clipPath><clipPath id="d730063b13"><path d="M -2.136719 5.632812 L 205.75 0.703125 L 208.160156 102.40625 L 0.273438 107.332031 Z M -2.136719 5.632812 " clip-rule="nonzero"/></clipPath><clipPath id="48674451d4"><path d="M -2.136719 5.632812 L 205.75 0.703125 L 208.160156 102.40625 L 0.273438 107.332031 Z M -2.136719 5.632812 " clip-rule="nonzero"/></clipPath><clipPath id="bda38fe3f9"><path d="M 0 10 L 187 10 L 187 62 L 0 62 Z M 0 10 " clip-rule="nonzero"/></clipPath><clipPath id="3eba417e2b"><path d="M -2.136719 5.632812 L 205.75 0.703125 L 208.160156 102.40625 L 0.273438 107.332031 Z M -2.136719 5.632812 " clip-rule="nonzero"/></clipPath><clipPath id="9bcde4de4a"><path d="M -2.136719 5.632812 L 205.75 0.703125 L 208.160156 102.40625 L 0.273438 107.332031 Z M -2.136719 5.632812 " clip-rule="nonzero"/></clipPath><clipPath id="e9be6197f4"><path d="M 0 26 L 187 26 L 187 63.898438 L 0 63.898438 Z M 0 26 " clip-rule="nonzero"/></clipPath><clipPath id="9a377a71e7"><path d="M -2.136719 5.632812 L 205.75 0.703125 L 208.160156 102.40625 L 0.273438 107.332031 Z M -2.136719 5.632812 " clip-rule="nonzero"/></clipPath><clipPath id="a0227e0449"><path d="M -2.136719 5.632812 L 205.75 0.703125 L 208.160156 102.40625 L 0.273438 107.332031 Z M -2.136719 5.632812 " clip-rule="nonzero"/></clipPath><clipPath id="b567705cc1"><rect x="0" width="187" y="0" height="64"/></clipPath><clipPath id="7cea1f736d"><path d="M 0 13 L 187 13 L 187 74.898438 L 0 74.898438 Z M 0 13 " clip-rule="nonzero"/></clipPath><mask id="30b58ba04b"><g filter="url(#ad4d9d905f)"><rect x="-18.75" width="225" fill="#000000" y="-7.5" height="89.999996" fill-opacity="0.28"/></g></mask><clipPath id="c82f6c504c"><path d="M 0 8 L 187 8 L 187 61.898438 L 0 61.898438 Z M 0 8 " clip-rule="nonzero"/></clipPath><clipPath id="4b0e8af04a"><path d="M -8.523438 57.214844 L 181.355469 0.324219 L 208.191406 89.890625 L 18.3125 146.785156 Z M -8.523438 57.214844 " clip-rule="nonzero"/></clipPath><clipPath id="77af077533"><path d="M -8.523438 57.214844 L 181.355469 0.324219 L 208.191406 89.890625 L 18.3125 146.785156 Z M -8.523438 57.214844 " clip-rule="nonzero"/></clipPath><clipPath id="e2bd8dcfa0"><rect x="0" width="187" y="0" height="62"/></clipPath><clipPath id="b5c6af7c4f"><path d="M 64.605469 11.710938 L 83.371094 11.710938 L 83.371094 30.480469 L 64.605469 30.480469 Z M 64.605469 11.710938 " clip-rule="nonzero"/></clipPath><clipPath id="a962d361e0"><path d="M 73.988281 11.710938 C 68.804688 11.710938 64.605469 15.914062 64.605469 21.09375 C 64.605469 26.277344 68.804688 30.480469 73.988281 30.480469 C 79.167969 30.480469 83.371094 26.277344 83.371094 21.09375 C 83.371094 15.914062 79.167969 11.710938 73.988281 11.710938 Z M 73.988281 11.710938 " clip-rule="nonzero"/></clipPath></defs><g clip-path="url(#99325f5e78)"><path fill="#ffffff" d="M 0 0.101562 L 187 0.101562 L 187 74.898438 L 0 74.898438 Z M 0 0.101562 " fill-opacity="1" fill-rule="nonzero"/><path fill="#ffffff" d="M 0 0.101562 L 187 0.101562 L 187 74.898438 L 0 74.898438 Z M 0 0.101562 " fill-opacity="1" fill-rule="nonzero"/></g><g clip-path="url(#09d2b083f1)"><g mask="url(#05df58b800)"><g transform="matrix(1, 0, 0, 1, 0, 11)"><g clip-path="url(#b567705cc1)"><g clip-path="url(#dee8523362)"><g clip-path="url(#d730063b13)"><g clip-path="url(#48674451d4)"><path fill="#5befe1" d="M -0.808594 61.625 L -1.96875 12.6875 C 86.140625 93.863281 101.265625 9.144531 205.425781 0.746094 L 206.75 56.707031 Z M -0.808594 61.625 " fill-opacity="1" fill-rule="evenodd"/></g></g></g><g clip-path="url(#bda38fe3f9)"><g clip-path="url(#3eba417e2b)"><g clip-path="url(#9bcde4de4a)"><path fill="#49b0b6" d="M 206.75 56.707031 L 205.945312 22.65625 C 128.144531 3.984375 85.3125 105.554688 -2.015625 10.8125 L -0.808594 61.625 Z M 206.75 56.707031 " fill-opacity="1" fill-rule="evenodd"/></g></g></g><g clip-path="url(#e9be6197f4)"><g clip-path="url(#9a377a71e7)"><g clip-path="url(#a0227e0449)"><path fill="#16d1a6" d="M 207.03125 68.605469 L 206.246094 35.363281 C 134.722656 7.855469 99.78125 92.191406 -1.648438 26.191406 L -0.527344 73.523438 L 207.03125 68.601562 Z M 207.03125 68.605469 " fill-opacity="1" fill-rule="evenodd"/></g></g></g></g></g></g></g><g clip-path="url(#7cea1f736d)"><g mask="url(#30b58ba04b)"><g transform="matrix(1, 0, 0, 1, 0, 13)"><g clip-path="url(#e2bd8dcfa0)"><g clip-path="url(#c82f6c504c)"><g clip-path="url(#4b0e8af04a)"><g clip-path="url(#77af077533)"><path fill="#16d1a6" d="M -7.53125 59.367188 L 18.542969 146.382812 L 207.695312 89.707031 L 183.222656 8.03125 C 181.285156 10.417969 179.664062 12.832031 178.449219 15.214844 C 160.394531 50.796875 111.363281 57.851562 76.417969 52.304688 C 50.125 48.125 18.753906 49.054688 -7.53125 59.367188 Z M -7.53125 59.367188 " fill-opacity="1" fill-rule="evenodd"/></g></g></g></g></g></g></g><g fill="#1f0b2e" fill-opacity="1"><g transform="translate(0.00877171, 72.213154)"><g><path d="M 41.75 -49.859375 L 61.625 0 L 41.75 0 L 30.5625 -30.984375 L 25.21875 -16.59375 L 34.40625 -16.59375 L 40.390625 0 L -0.140625 0 L 19.375 -49.859375 Z M 41.75 -49.859375 "/></g></g></g><g fill="#1f0b2e" fill-opacity="1"><g transform="translate(62.116238, 72.213154)"><g><path d="M 0.71875 -39.96875 L 18.234375 -39.96875 L 18.234375 0 L 0.71875 0 Z M 0.71875 -39.96875 "/></g></g></g><g fill="#1f0b2e" fill-opacity="1"><g transform="translate(81.631721, 72.213154)"><g><path d="M 28 1.421875 C 24.25 1.421875 20.722656 0.734375 17.421875 -0.640625 C 14.117188 -2.015625 11.21875 -3.898438 8.71875 -6.296875 C 6.226562 -8.703125 4.269531 -11.503906 2.84375 -14.703125 C 1.425781 -17.910156 0.71875 -21.320312 0.71875 -24.9375 C 0.71875 -28.59375 1.425781 -32.007812 2.84375 -35.1875 C 4.269531 -38.375 6.226562 -41.164062 8.71875 -43.5625 C 11.21875 -45.957031 14.117188 -47.84375 17.421875 -49.21875 C 20.722656 -50.59375 24.25 -51.28125 28 -51.28125 C 31.75 -51.28125 35.273438 -50.59375 38.578125 -49.21875 C 41.878906 -47.84375 44.773438 -45.957031 47.265625 -43.5625 C 49.753906 -41.164062 51.695312 -38.375 53.09375 -35.1875 C 54.5 -32.007812 55.203125 -28.59375 55.203125 -24.9375 C 55.203125 -21.320312 54.5 -17.910156 53.09375 -14.703125 C 51.695312 -11.503906 49.753906 -8.703125 47.265625 -6.296875 C 44.773438 -3.898438 41.878906 -2.015625 38.578125 -0.640625 C 35.273438 0.734375 31.75 1.421875 28 1.421875 Z M 20.875 -24.9375 C 20.875 -22.988281 21.5625 -21.320312 22.9375 -19.9375 C 24.3125 -18.5625 25.972656 -17.875 27.921875 -17.875 C 29.867188 -17.875 31.539062 -18.5625 32.9375 -19.9375 C 34.34375 -21.320312 35.046875 -22.988281 35.046875 -24.9375 C 35.046875 -26.882812 34.34375 -28.554688 32.9375 -29.953125 C 31.539062 -31.359375 29.867188 -32.0625 27.921875 -32.0625 C 25.972656 -32.0625 24.3125 -31.359375 22.9375 -29.953125 C 21.5625 -28.554688 20.875 -26.882812 20.875 -24.9375 Z M 20.875 -24.9375 "/></g></g></g><g fill="#1f0b2e" fill-opacity="1"><g transform="translate(138.18371, 72.213154)"><g><path d="M 32.484375 -28.28125 L 33.546875 -28.28125 L 29.5625 -34.765625 L 29.5625 -49.859375 L 48.078125 -49.859375 L 48.078125 0 L 29.34375 0 L 16.390625 -20.65625 L 15.25 -20.65625 L 19.296875 -14.109375 L 19.296875 0 L 0.78125 0 L 0.78125 -49.859375 L 18.59375 -49.859375 Z M 32.484375 -28.28125 "/></g></g></g><g clip-path="url(#b5c6af7c4f)"><g clip-path="url(#a962d361e0)"><path fill="#ff5c4a" d="M 64.605469 11.710938 L 83.371094 11.710938 L 83.371094 30.480469 L 64.605469 30.480469 Z M 64.605469 11.710938 " fill-opacity="1" fill-rule="nonzero"/></g></g></svg>