<svg xmlns="http://www.w3.org/2000/svg" xmlns:xlink="http://www.w3.org/1999/xlink" width="500" zoomAndPan="magnify" viewBox="0 0 375 374.999991" height="500" preserveAspectRatio="xMidYMid meet" version="1.0"><defs><g/><clipPath id="af64c267b4"><path d="M 249 45 L 337 45 L 337 133 L 249 133 Z M 249 45 " clip-rule="nonzero"/></clipPath><clipPath id="eddb8334a7"><path d="M 247.292969 48.367188 L 333.625 42.832031 L 339.15625 129.167969 L 252.824219 134.699219 Z M 247.292969 48.367188 " clip-rule="nonzero"/></clipPath><clipPath id="3344d91125"><path d="M 290.460938 45.597656 C 266.621094 47.125 248.53125 67.691406 250.058594 91.53125 C 251.585938 115.371094 272.152344 133.460938 295.992188 131.933594 C 319.832031 130.40625 337.917969 109.839844 336.390625 86 C 334.863281 62.160156 314.300781 44.070312 290.460938 45.597656 Z M 290.460938 45.597656 " clip-rule="nonzero"/></clipPath></defs><rect x="-37.5" width="450" fill="#ffffff" y="-37.499999" height="449.999989" fill-opacity="1"/><rect x="-37.5" width="450" fill="#ffffff" y="-37.499999" height="449.999989" fill-opacity="1"/><g clip-path="url(#af64c267b4)"><g clip-path="url(#eddb8334a7)"><g clip-path="url(#3344d91125)"><path fill="#ff5c4a" d="M 247.292969 48.367188 L 333.625 42.832031 L 339.15625 129.167969 L 252.824219 134.699219 Z M 247.292969 48.367188 " fill-opacity="1" fill-rule="nonzero"/></g></g></g><g fill="#1f0b2e" fill-opacity="1"><g transform="translate(293.709545, 263.429109)"><g><path d="M -19.859375 -119.109375 L 32.1875 -128.75 L 54.171875 -10.03125 L 2.125 -0.390625 Z M -19.859375 -119.109375 "/></g></g></g><g fill="#1f0b2e" fill-opacity="1"><g transform="translate(10.040914, 316.889754)"><g><path d="M 145.015625 -256.90625 L 274.859375 -50.90625 L 186.203125 -34.484375 L 110.734375 -163.484375 L 98.765625 -94.859375 L 139.75 -102.453125 L 180.171875 -33.375 L -0.625 0.109375 L 45.25 -238.4375 Z M 145.015625 -256.90625 "/></g></g></g><g fill="#1f0b2e" fill-opacity="1"><g transform="translate(299.204422, 263.333478)"><g/></g></g><g fill="#1f0b2e" fill-opacity="1"><g transform="translate(312.362655, 259.97435)"><g><path d="M -19.859375 -119.109375 L 32.1875 -128.75 L 54.171875 -10.03125 L 2.125 -0.390625 Z M -19.859375 -119.109375 "/></g></g></g></svg>